<?xml version="1.0" standalone="no"?>
<!DOCTYPE svg PUBLIC "-//W3C//DTD SVG 20010904//EN"
 "http://www.w3.org/TR/2001/REC-SVG-20010904/DTD/svg10.dtd">
<svg version="1.0" xmlns="http://www.w3.org/2000/svg"
 width="1024.000000pt" height="1024.000000pt" viewBox="0 0 1024.000000 1024.000000"
 preserveAspectRatio="xMidYMid meet">
<metadata>
Created by potrace 1.14, written by Peter Selinger 2001-2017
</metadata>
<g transform="translate(0.000000,1024.000000) scale(0.100000,-0.100000)"
fill="#000000" stroke="none">
<path d="M1345 8074 c-44 -16 -90 -55 -110 -95 -12 -22 -68 -220 -80 -277 -1
-9 -11 -46 -20 -82 -9 -36 -19 -76 -22 -90 -2 -14 -11 -48 -19 -76 -8 -28 -17
-61 -19 -73 -2 -13 -7 -31 -10 -41 -3 -10 -7 -27 -9 -37 -2 -10 -14 -56 -26
-103 -12 -47 -23 -92 -25 -100 -2 -8 -22 -89 -45 -180 -23 -91 -44 -178 -47
-195 -3 -16 -9 -37 -13 -45 -14 -26 -3 -126 18 -166 11 -22 33 -51 49 -66 59
-56 51 -55 767 -54 578 1 659 3 661 16 2 8 15 74 30 145 15 72 29 139 31 150
1 11 23 121 49 245 25 124 47 236 50 249 3 20 25 121 30 141 1 3 5 25 9 50 5
25 10 52 12 60 11 53 103 501 108 530 4 19 9 52 13 72 l5 37 -673 -1 c-551 0
-681 -3 -714 -14z"/>
<path d="M3161 8032 c-14 -75 -18 -96 -46 -232 -13 -63 -26 -126 -29 -140 -2
-14 -14 -70 -25 -125 -12 -55 -24 -113 -27 -130 -3 -16 -9 -48 -14 -70 -5 -22
-12 -56 -15 -75 -3 -19 -12 -64 -20 -100 -8 -36 -16 -76 -19 -90 -2 -14 -21
-106 -41 -205 -20 -99 -39 -188 -41 -198 -2 -10 -5 -26 -8 -35 -3 -9 -7 -33
-10 -52 -3 -19 -12 -66 -21 -105 -8 -38 -15 -73 -15 -76 0 -4 373 -6 830 -6
757 0 830 1 834 16 3 9 4 390 4 848 l-1 831 -663 1 -662 0 -11 -57z"/>
<path d="M4926 8067 c-3 -12 -4 -394 -4 -848 l1 -826 404 0 404 -1 71 87 c39
47 109 128 157 180 134 146 266 276 440 435 45 41 46 43 27 131 -42 198 -60
282 -71 341 -14 72 -29 141 -67 314 -11 52 -22 102 -23 110 -1 8 -5 34 -10 57
l-7 42 -659 -1 -659 0 -4 -21z"/>
<path d="M6684 8072 c3 -9 17 -75 30 -147 14 -71 37 -188 51 -260 14 -71 27
-141 30 -155 4 -25 21 -107 29 -145 2 -11 7 -38 11 -60 5 -32 16 -48 55 -78
57 -45 55 -44 190 -167 130 -118 340 -328 445 -445 44 -49 96 -107 116 -129
l37 -40 92 90 c106 102 96 92 220 204 52 47 114 103 138 125 24 22 49 43 56
47 7 4 74 -50 166 -133 85 -76 159 -139 164 -139 4 0 5 8 1 18 -7 15 -62 222
-70 262 -2 8 -21 87 -43 175 -51 199 -108 429 -174 694 -42 168 -56 209 -79
235 -57 66 -36 64 -789 64 -632 0 -680 -1 -676 -16z"/>
<path d="M6523 6625 c-322 -316 -547 -579 -777 -910 -42 -60 -81 -117 -86
-125 -5 -8 -24 -38 -42 -65 -117 -180 -261 -448 -331 -615 -27 -67 -87 -233
-92 -260 -2 -8 -10 -42 -18 -75 -29 -113 -41 -220 -41 -355 0 -89 10 -242 18
-286 2 -10 11 -59 21 -109 30 -162 79 -304 165 -480 110 -225 219 -375 415
-571 340 -339 733 -536 1195 -600 168 -23 475 -23 610 1 14 2 54 9 90 15 449
77 866 316 1199 689 250 279 408 590 480 942 29 139 36 224 36 409 -1 205 -26
333 -109 555 -64 170 -216 484 -307 632 -23 37 -50 84 -61 103 -63 110 -266
383 -391 525 -74 84 -296 305 -306 305 -16 -1 -351 -340 -477 -482 l-50 -58
-80 98 c-88 108 -183 220 -283 331 -74 84 -385 398 -503 508 l-77 73 -198
-195z m289 -1269 c120 -150 271 -346 647 -841 90 -119 167 -212 171 -208 4 4
38 46 76 93 38 47 79 96 91 110 12 14 72 86 133 160 62 74 122 146 133 160 12
14 34 40 49 58 l27 32 29 -43 c67 -96 165 -334 187 -452 19 -101 24 -285 11
-368 -3 -20 -9 -54 -12 -74 -13 -89 -51 -205 -99 -307 -105 -221 -326 -417
-580 -514 -152 -59 -254 -77 -430 -76 -124 1 -197 7 -270 24 -27 6 -59 13 -70
16 -88 18 -285 114 -377 183 -251 190 -400 445 -441 751 -50 378 47 635 427
1140 60 79 114 150 120 156 6 6 27 31 46 57 19 25 38 47 42 47 4 0 45 -47 90
-104z"/>
<path d="M1324 5925 c3 -25 9 -66 12 -92 3 -27 7 -59 9 -73 9 -58 18 -147 19
-180 l1 -34 -155 -2 c-170 -1 -203 -9 -254 -60 -55 -56 -59 -76 -61 -347 -1
-273 6 -320 51 -369 59 -63 95 -71 321 -71 112 0 206 -3 208 -7 3 -5 7 -28 10
-51 3 -24 7 -60 10 -79 2 -19 6 -53 9 -75 12 -98 19 -151 21 -165 2 -8 6 -44
10 -80 4 -36 8 -72 10 -80 2 -8 6 -44 10 -80 4 -36 8 -72 10 -80 2 -8 6 -44
10 -80 4 -36 8 -72 10 -80 2 -8 6 -44 10 -80 4 -36 9 -73 10 -82 2 -9 7 -48
10 -85 4 -37 8 -75 10 -83 2 -8 7 -42 11 -75 3 -33 8 -67 9 -75 2 -8 6 -44 10
-80 4 -36 9 -73 11 -83 2 -10 6 -45 9 -78 4 -33 8 -68 10 -77 1 -9 6 -46 10
-82 4 -36 8 -72 10 -80 2 -8 6 -44 10 -80 4 -36 9 -73 11 -84 8 -42 15 -159
18 -286 3 -147 9 -167 69 -223 51 -47 98 -54 367 -52 274 2 304 8 359 71 41
46 51 90 51 230 l0 122 1363 0 c749 0 1372 1 1385 1 22 1 21 4 -16 44 -71 75
-262 333 -262 353 0 3 -9 19 -21 35 -31 44 -127 241 -166 343 -45 116 -91 271
-109 361 -2 11 -7 34 -10 50 -4 17 -8 41 -10 55 -4 39 -14 112 -20 145 -10 56
-13 400 -4 460 4 33 11 76 13 95 12 84 73 322 96 375 5 11 15 36 22 55 87 245
244 543 438 835 58 88 110 166 114 173 6 9 -404 12 -2038 12 l-2047 0 6 -45z"/>
</g>
</svg>
